<mxfile host="app.diagrams.net" agent="Mozilla/5.0 (Windows NT 10.0; Win64; x64) AppleWebKit/537.36 (KHTML, like Gecko) Chrome/130.0.0.0 Safari/537.36" version="24.7.17">
  <diagram name="Сторінка-1" id="QHy2ENo-WBxXbDw1lXHB">
    <mxGraphModel grid="1" page="1" gridSize="10" guides="1" tooltips="1" connect="1" arrows="1" fold="1" pageScale="1" pageWidth="827" pageHeight="1169" math="0" shadow="0">
      <root>
        <mxCell id="0" />
        <mxCell id="1" parent="0" />
        <mxCell id="rEDrQ1sEtyuGQqjGFcy0-3" value="" style="edgeStyle=orthogonalEdgeStyle;rounded=0;orthogonalLoop=1;jettySize=auto;html=1;" edge="1" parent="1" source="rEDrQ1sEtyuGQqjGFcy0-1" target="rEDrQ1sEtyuGQqjGFcy0-2">
          <mxGeometry relative="1" as="geometry" />
        </mxCell>
        <mxCell id="rEDrQ1sEtyuGQqjGFcy0-1" value="&lt;font style=&quot;font-size: 18px;&quot;&gt;Start&lt;/font&gt;" style="ellipse;whiteSpace=wrap;html=1;" vertex="1" parent="1">
          <mxGeometry x="270" y="50" width="120" height="80" as="geometry" />
        </mxCell>
        <mxCell id="rEDrQ1sEtyuGQqjGFcy0-5" value="" style="edgeStyle=orthogonalEdgeStyle;rounded=0;orthogonalLoop=1;jettySize=auto;html=1;" edge="1" parent="1" source="rEDrQ1sEtyuGQqjGFcy0-2" target="rEDrQ1sEtyuGQqjGFcy0-4">
          <mxGeometry relative="1" as="geometry" />
        </mxCell>
        <mxCell id="rEDrQ1sEtyuGQqjGFcy0-2" value="&lt;font style=&quot;font-size: 18px;&quot;&gt;Weather Input&lt;/font&gt;" style="shape=parallelogram;perimeter=parallelogramPerimeter;whiteSpace=wrap;html=1;fixedSize=1;" vertex="1" parent="1">
          <mxGeometry x="255" y="170" width="150" height="60" as="geometry" />
        </mxCell>
        <mxCell id="rEDrQ1sEtyuGQqjGFcy0-12" value="" style="edgeStyle=orthogonalEdgeStyle;rounded=0;orthogonalLoop=1;jettySize=auto;html=1;" edge="1" parent="1" source="rEDrQ1sEtyuGQqjGFcy0-4" target="rEDrQ1sEtyuGQqjGFcy0-11">
          <mxGeometry relative="1" as="geometry" />
        </mxCell>
        <mxCell id="rEDrQ1sEtyuGQqjGFcy0-23" value="" style="edgeStyle=orthogonalEdgeStyle;rounded=0;orthogonalLoop=1;jettySize=auto;html=1;" edge="1" parent="1" source="rEDrQ1sEtyuGQqjGFcy0-4" target="rEDrQ1sEtyuGQqjGFcy0-22">
          <mxGeometry relative="1" as="geometry" />
        </mxCell>
        <mxCell id="rEDrQ1sEtyuGQqjGFcy0-4" value="&lt;br&gt;&amp;nbsp;Weather_Input &amp;gt; 5&lt;br&gt;OR&lt;br&gt;Weather_Input &amp;lt; 1" style="rhombus;whiteSpace=wrap;html=1;" vertex="1" parent="1">
          <mxGeometry x="255" y="280" width="150" height="140" as="geometry" />
        </mxCell>
        <mxCell id="rEDrQ1sEtyuGQqjGFcy0-11" value="Invalid Input" style="shape=parallelogram;perimeter=parallelogramPerimeter;whiteSpace=wrap;html=1;fixedSize=1;" vertex="1" parent="1">
          <mxGeometry x="90" y="320" width="120" height="60" as="geometry" />
        </mxCell>
        <mxCell id="rEDrQ1sEtyuGQqjGFcy0-13" value="" style="endArrow=none;html=1;rounded=0;" edge="1" parent="1">
          <mxGeometry width="50" height="50" relative="1" as="geometry">
            <mxPoint x="150" y="320" as="sourcePoint" />
            <mxPoint x="150" y="160" as="targetPoint" />
          </mxGeometry>
        </mxCell>
        <mxCell id="rEDrQ1sEtyuGQqjGFcy0-16" value="" style="endArrow=classic;html=1;rounded=0;" edge="1" parent="1">
          <mxGeometry width="50" height="50" relative="1" as="geometry">
            <mxPoint x="150" y="160" as="sourcePoint" />
            <mxPoint x="330" y="160" as="targetPoint" />
          </mxGeometry>
        </mxCell>
        <mxCell id="rEDrQ1sEtyuGQqjGFcy0-17" value="FALSE" style="text;strokeColor=none;align=center;fillColor=none;html=1;verticalAlign=middle;whiteSpace=wrap;rounded=0;" vertex="1" parent="1">
          <mxGeometry x="210" y="320" width="60" height="30" as="geometry" />
        </mxCell>
        <mxCell id="rEDrQ1sEtyuGQqjGFcy0-26" value="" style="edgeStyle=orthogonalEdgeStyle;rounded=0;orthogonalLoop=1;jettySize=auto;html=1;" edge="1" parent="1" source="rEDrQ1sEtyuGQqjGFcy0-22" target="rEDrQ1sEtyuGQqjGFcy0-25">
          <mxGeometry relative="1" as="geometry" />
        </mxCell>
        <mxCell id="rEDrQ1sEtyuGQqjGFcy0-22" value="" style="ellipse;whiteSpace=wrap;html=1;aspect=fixed;fillColor=#000000;" vertex="1" parent="1">
          <mxGeometry x="472" y="342" width="16" height="16" as="geometry" />
        </mxCell>
        <mxCell id="rEDrQ1sEtyuGQqjGFcy0-24" value="TRUE" style="text;strokeColor=none;align=center;fillColor=none;html=1;verticalAlign=middle;whiteSpace=wrap;rounded=0;" vertex="1" parent="1">
          <mxGeometry x="405" y="320" width="60" height="30" as="geometry" />
        </mxCell>
        <mxCell id="rEDrQ1sEtyuGQqjGFcy0-30" value="" style="edgeStyle=orthogonalEdgeStyle;rounded=0;orthogonalLoop=1;jettySize=auto;html=1;" edge="1" parent="1" source="rEDrQ1sEtyuGQqjGFcy0-25" target="rEDrQ1sEtyuGQqjGFcy0-29">
          <mxGeometry relative="1" as="geometry" />
        </mxCell>
        <mxCell id="rEDrQ1sEtyuGQqjGFcy0-33" value="" style="edgeStyle=orthogonalEdgeStyle;rounded=0;orthogonalLoop=1;jettySize=auto;html=1;" edge="1" parent="1" source="rEDrQ1sEtyuGQqjGFcy0-25" target="rEDrQ1sEtyuGQqjGFcy0-32">
          <mxGeometry relative="1" as="geometry" />
        </mxCell>
        <mxCell id="rEDrQ1sEtyuGQqjGFcy0-25" value="Weather Sunny" style="rhombus;whiteSpace=wrap;html=1;" vertex="1" parent="1">
          <mxGeometry x="440" y="410" width="80" height="80" as="geometry" />
        </mxCell>
        <mxCell id="rEDrQ1sEtyuGQqjGFcy0-29" value="Пропозиція вдягнути кросівки" style="shape=parallelogram;perimeter=parallelogramPerimeter;whiteSpace=wrap;html=1;fixedSize=1;" vertex="1" parent="1">
          <mxGeometry x="570" y="420" width="150" height="60" as="geometry" />
        </mxCell>
        <mxCell id="rEDrQ1sEtyuGQqjGFcy0-31" value="TRUE" style="text;strokeColor=none;align=center;fillColor=none;html=1;verticalAlign=middle;whiteSpace=wrap;rounded=0;" vertex="1" parent="1">
          <mxGeometry x="510" y="420" width="60" height="30" as="geometry" />
        </mxCell>
        <mxCell id="rEDrQ1sEtyuGQqjGFcy0-35" value="" style="edgeStyle=orthogonalEdgeStyle;rounded=0;orthogonalLoop=1;jettySize=auto;html=1;" edge="1" parent="1" source="rEDrQ1sEtyuGQqjGFcy0-32" target="rEDrQ1sEtyuGQqjGFcy0-34">
          <mxGeometry relative="1" as="geometry" />
        </mxCell>
        <mxCell id="rEDrQ1sEtyuGQqjGFcy0-39" value="" style="edgeStyle=orthogonalEdgeStyle;rounded=0;orthogonalLoop=1;jettySize=auto;html=1;" edge="1" parent="1" source="rEDrQ1sEtyuGQqjGFcy0-32" target="rEDrQ1sEtyuGQqjGFcy0-38">
          <mxGeometry relative="1" as="geometry" />
        </mxCell>
        <mxCell id="rEDrQ1sEtyuGQqjGFcy0-32" value="Weather Cloudy" style="rhombus;whiteSpace=wrap;html=1;" vertex="1" parent="1">
          <mxGeometry x="440" y="530" width="80" height="80" as="geometry" />
        </mxCell>
        <mxCell id="rEDrQ1sEtyuGQqjGFcy0-34" value="Пропозиція вдягнути шкіряні чоботи або водонепроникні кросівки" style="shape=parallelogram;perimeter=parallelogramPerimeter;whiteSpace=wrap;html=1;fixedSize=1;" vertex="1" parent="1">
          <mxGeometry x="570" y="540" width="160" height="60" as="geometry" />
        </mxCell>
        <mxCell id="rEDrQ1sEtyuGQqjGFcy0-36" value="TRUE" style="text;strokeColor=none;align=center;fillColor=none;html=1;verticalAlign=middle;whiteSpace=wrap;rounded=0;" vertex="1" parent="1">
          <mxGeometry x="520" y="530" width="60" height="30" as="geometry" />
        </mxCell>
        <mxCell id="rEDrQ1sEtyuGQqjGFcy0-37" value="FALSE" style="text;strokeColor=none;align=center;fillColor=none;html=1;verticalAlign=middle;whiteSpace=wrap;rounded=0;" vertex="1" parent="1">
          <mxGeometry x="420" y="490" width="60" height="30" as="geometry" />
        </mxCell>
        <mxCell id="rEDrQ1sEtyuGQqjGFcy0-41" value="" style="edgeStyle=orthogonalEdgeStyle;rounded=0;orthogonalLoop=1;jettySize=auto;html=1;" edge="1" parent="1" source="rEDrQ1sEtyuGQqjGFcy0-38" target="rEDrQ1sEtyuGQqjGFcy0-40">
          <mxGeometry relative="1" as="geometry" />
        </mxCell>
        <mxCell id="rEDrQ1sEtyuGQqjGFcy0-45" value="" style="edgeStyle=orthogonalEdgeStyle;rounded=0;orthogonalLoop=1;jettySize=auto;html=1;" edge="1" parent="1" source="rEDrQ1sEtyuGQqjGFcy0-38" target="rEDrQ1sEtyuGQqjGFcy0-44">
          <mxGeometry relative="1" as="geometry" />
        </mxCell>
        <mxCell id="rEDrQ1sEtyuGQqjGFcy0-38" value="Weather Snowy" style="rhombus;whiteSpace=wrap;html=1;" vertex="1" parent="1">
          <mxGeometry x="440" y="640" width="80" height="80" as="geometry" />
        </mxCell>
        <mxCell id="rEDrQ1sEtyuGQqjGFcy0-40" value="Пропозиція вдягнути зимові чоботи" style="shape=parallelogram;perimeter=parallelogramPerimeter;whiteSpace=wrap;html=1;fixedSize=1;" vertex="1" parent="1">
          <mxGeometry x="580" y="650" width="150" height="60" as="geometry" />
        </mxCell>
        <mxCell id="rEDrQ1sEtyuGQqjGFcy0-42" value="TRUE" style="text;strokeColor=none;align=center;fillColor=none;html=1;verticalAlign=middle;whiteSpace=wrap;rounded=0;" vertex="1" parent="1">
          <mxGeometry x="520" y="650" width="60" height="30" as="geometry" />
        </mxCell>
        <mxCell id="rEDrQ1sEtyuGQqjGFcy0-43" value="FALSE" style="text;strokeColor=none;align=center;fillColor=none;html=1;verticalAlign=middle;whiteSpace=wrap;rounded=0;" vertex="1" parent="1">
          <mxGeometry x="420" y="610" width="60" height="30" as="geometry" />
        </mxCell>
        <mxCell id="rEDrQ1sEtyuGQqjGFcy0-48" value="" style="edgeStyle=orthogonalEdgeStyle;rounded=0;orthogonalLoop=1;jettySize=auto;html=1;" edge="1" parent="1" source="rEDrQ1sEtyuGQqjGFcy0-44" target="rEDrQ1sEtyuGQqjGFcy0-47">
          <mxGeometry relative="1" as="geometry" />
        </mxCell>
        <mxCell id="rEDrQ1sEtyuGQqjGFcy0-52" value="" style="edgeStyle=orthogonalEdgeStyle;rounded=0;orthogonalLoop=1;jettySize=auto;html=1;" edge="1" parent="1" source="rEDrQ1sEtyuGQqjGFcy0-44" target="rEDrQ1sEtyuGQqjGFcy0-51">
          <mxGeometry relative="1" as="geometry" />
        </mxCell>
        <mxCell id="rEDrQ1sEtyuGQqjGFcy0-44" value="Weather Windy" style="rhombus;whiteSpace=wrap;html=1;" vertex="1" parent="1">
          <mxGeometry x="440" y="750" width="80" height="80" as="geometry" />
        </mxCell>
        <mxCell id="rEDrQ1sEtyuGQqjGFcy0-46" value="FALSE" style="text;strokeColor=none;align=center;fillColor=none;html=1;verticalAlign=middle;whiteSpace=wrap;rounded=0;" vertex="1" parent="1">
          <mxGeometry x="420" y="720" width="60" height="30" as="geometry" />
        </mxCell>
        <mxCell id="rEDrQ1sEtyuGQqjGFcy0-47" value="Пропозиція вдягнути стійке взуття" style="shape=parallelogram;perimeter=parallelogramPerimeter;whiteSpace=wrap;html=1;fixedSize=1;" vertex="1" parent="1">
          <mxGeometry x="570" y="760" width="150" height="60" as="geometry" />
        </mxCell>
        <mxCell id="rEDrQ1sEtyuGQqjGFcy0-49" value="TRUE" style="text;strokeColor=none;align=center;fillColor=none;html=1;verticalAlign=middle;whiteSpace=wrap;rounded=0;" vertex="1" parent="1">
          <mxGeometry x="520" y="760" width="60" height="30" as="geometry" />
        </mxCell>
        <mxCell id="rEDrQ1sEtyuGQqjGFcy0-55" value="" style="edgeStyle=orthogonalEdgeStyle;rounded=0;orthogonalLoop=1;jettySize=auto;html=1;" edge="1" parent="1" source="rEDrQ1sEtyuGQqjGFcy0-51" target="rEDrQ1sEtyuGQqjGFcy0-54">
          <mxGeometry relative="1" as="geometry" />
        </mxCell>
        <mxCell id="rEDrQ1sEtyuGQqjGFcy0-51" value="Weather Rainy" style="rhombus;whiteSpace=wrap;html=1;" vertex="1" parent="1">
          <mxGeometry x="440" y="870" width="80" height="80" as="geometry" />
        </mxCell>
        <mxCell id="rEDrQ1sEtyuGQqjGFcy0-53" value="FALSE" style="text;strokeColor=none;align=center;fillColor=none;html=1;verticalAlign=middle;whiteSpace=wrap;rounded=0;" vertex="1" parent="1">
          <mxGeometry x="414" y="840" width="60" height="30" as="geometry" />
        </mxCell>
        <mxCell id="rEDrQ1sEtyuGQqjGFcy0-54" value="Пропозиція вдягнути дощові чоботи або водонепроникні кросівки" style="shape=parallelogram;perimeter=parallelogramPerimeter;whiteSpace=wrap;html=1;fixedSize=1;" vertex="1" parent="1">
          <mxGeometry x="555" y="880" width="200" height="60" as="geometry" />
        </mxCell>
        <mxCell id="rEDrQ1sEtyuGQqjGFcy0-56" value="TRUE" style="text;strokeColor=none;align=center;fillColor=none;html=1;verticalAlign=middle;whiteSpace=wrap;rounded=0;" vertex="1" parent="1">
          <mxGeometry x="510" y="880" width="60" height="30" as="geometry" />
        </mxCell>
        <mxCell id="rEDrQ1sEtyuGQqjGFcy0-60" value="" style="endArrow=none;html=1;rounded=0;" edge="1" parent="1">
          <mxGeometry width="50" height="50" relative="1" as="geometry">
            <mxPoint x="770" y="1010" as="sourcePoint" />
            <mxPoint x="770" y="450" as="targetPoint" />
          </mxGeometry>
        </mxCell>
        <mxCell id="rEDrQ1sEtyuGQqjGFcy0-61" value="" style="endArrow=classic;html=1;rounded=0;" edge="1" parent="1">
          <mxGeometry width="50" height="50" relative="1" as="geometry">
            <mxPoint x="720" y="570" as="sourcePoint" />
            <mxPoint x="770" y="570" as="targetPoint" />
          </mxGeometry>
        </mxCell>
        <mxCell id="rEDrQ1sEtyuGQqjGFcy0-62" value="" style="endArrow=classic;html=1;rounded=0;" edge="1" parent="1">
          <mxGeometry width="50" height="50" relative="1" as="geometry">
            <mxPoint x="720" y="680" as="sourcePoint" />
            <mxPoint x="770" y="680" as="targetPoint" />
          </mxGeometry>
        </mxCell>
        <mxCell id="rEDrQ1sEtyuGQqjGFcy0-63" value="" style="endArrow=classic;html=1;rounded=0;" edge="1" parent="1">
          <mxGeometry width="50" height="50" relative="1" as="geometry">
            <mxPoint x="710" y="790" as="sourcePoint" />
            <mxPoint x="770" y="790" as="targetPoint" />
          </mxGeometry>
        </mxCell>
        <mxCell id="rEDrQ1sEtyuGQqjGFcy0-64" value="" style="endArrow=classic;html=1;rounded=0;" edge="1" parent="1">
          <mxGeometry width="50" height="50" relative="1" as="geometry">
            <mxPoint x="740" y="920" as="sourcePoint" />
            <mxPoint x="770" y="920" as="targetPoint" />
          </mxGeometry>
        </mxCell>
        <mxCell id="rEDrQ1sEtyuGQqjGFcy0-65" value="" style="endArrow=classic;html=1;rounded=0;" edge="1" parent="1">
          <mxGeometry width="50" height="50" relative="1" as="geometry">
            <mxPoint x="710" y="450" as="sourcePoint" />
            <mxPoint x="770" y="450" as="targetPoint" />
          </mxGeometry>
        </mxCell>
        <mxCell id="rEDrQ1sEtyuGQqjGFcy0-66" value="" style="endArrow=none;html=1;rounded=0;" edge="1" parent="1">
          <mxGeometry width="50" height="50" relative="1" as="geometry">
            <mxPoint x="490" y="1010" as="sourcePoint" />
            <mxPoint x="770" y="1010" as="targetPoint" />
          </mxGeometry>
        </mxCell>
        <mxCell id="rEDrQ1sEtyuGQqjGFcy0-67" value="" style="endArrow=classic;html=1;rounded=0;" edge="1" parent="1">
          <mxGeometry width="50" height="50" relative="1" as="geometry">
            <mxPoint x="490" y="1010" as="sourcePoint" />
            <mxPoint x="490" y="1050" as="targetPoint" />
          </mxGeometry>
        </mxCell>
        <mxCell id="rEDrQ1sEtyuGQqjGFcy0-68" value="" style="ellipse;whiteSpace=wrap;html=1;aspect=fixed;fillColor=#000000;" vertex="1" parent="1">
          <mxGeometry x="480" y="1050" width="16" height="16" as="geometry" />
        </mxCell>
        <mxCell id="rEDrQ1sEtyuGQqjGFcy0-71" value="" style="endArrow=none;html=1;rounded=0;exitX=0.5;exitY=1;exitDx=0;exitDy=0;" edge="1" parent="1" source="rEDrQ1sEtyuGQqjGFcy0-68">
          <mxGeometry width="50" height="50" relative="1" as="geometry">
            <mxPoint x="500" y="1080" as="sourcePoint" />
            <mxPoint x="488" y="1100" as="targetPoint" />
          </mxGeometry>
        </mxCell>
        <mxCell id="rEDrQ1sEtyuGQqjGFcy0-74" value="" style="endArrow=none;html=1;rounded=0;" edge="1" parent="1">
          <mxGeometry width="50" height="50" relative="1" as="geometry">
            <mxPoint x="488" y="1100" as="sourcePoint" />
            <mxPoint x="890" y="1100" as="targetPoint" />
          </mxGeometry>
        </mxCell>
        <mxCell id="rEDrQ1sEtyuGQqjGFcy0-75" value="" style="endArrow=none;html=1;rounded=0;" edge="1" parent="1">
          <mxGeometry width="50" height="50" relative="1" as="geometry">
            <mxPoint x="890" y="1100" as="sourcePoint" />
            <mxPoint x="890" y="450" as="targetPoint" />
          </mxGeometry>
        </mxCell>
        <mxCell id="rEDrQ1sEtyuGQqjGFcy0-76" value="" style="endArrow=classic;html=1;rounded=0;" edge="1" parent="1">
          <mxGeometry width="50" height="50" relative="1" as="geometry">
            <mxPoint x="890" y="450" as="sourcePoint" />
            <mxPoint x="950" y="450" as="targetPoint" />
          </mxGeometry>
        </mxCell>
        <mxCell id="rEDrQ1sEtyuGQqjGFcy0-79" value="" style="edgeStyle=orthogonalEdgeStyle;rounded=0;orthogonalLoop=1;jettySize=auto;html=1;" edge="1" parent="1" source="rEDrQ1sEtyuGQqjGFcy0-77" target="rEDrQ1sEtyuGQqjGFcy0-78">
          <mxGeometry relative="1" as="geometry" />
        </mxCell>
        <mxCell id="rEDrQ1sEtyuGQqjGFcy0-82" value="" style="edgeStyle=orthogonalEdgeStyle;rounded=0;orthogonalLoop=1;jettySize=auto;html=1;" edge="1" parent="1" source="rEDrQ1sEtyuGQqjGFcy0-77" target="rEDrQ1sEtyuGQqjGFcy0-81">
          <mxGeometry relative="1" as="geometry" />
        </mxCell>
        <mxCell id="rEDrQ1sEtyuGQqjGFcy0-77" value="Weather_Input&amp;nbsp; Sunny" style="rhombus;whiteSpace=wrap;html=1;" vertex="1" parent="1">
          <mxGeometry x="950" y="390" width="120" height="120" as="geometry" />
        </mxCell>
        <mxCell id="rEDrQ1sEtyuGQqjGFcy0-78" value="1)Скаже не вдягати куртку&lt;div&gt;2)Порада до активності&lt;/div&gt;" style="shape=parallelogram;perimeter=parallelogramPerimeter;whiteSpace=wrap;html=1;fixedSize=1;" vertex="1" parent="1">
          <mxGeometry x="1100" y="410" width="170" height="80" as="geometry" />
        </mxCell>
        <mxCell id="rEDrQ1sEtyuGQqjGFcy0-80" value="TRUE" style="text;strokeColor=none;align=center;fillColor=none;html=1;verticalAlign=middle;whiteSpace=wrap;rounded=0;" vertex="1" parent="1">
          <mxGeometry x="1060" y="420" width="60" height="30" as="geometry" />
        </mxCell>
        <mxCell id="rEDrQ1sEtyuGQqjGFcy0-86" value="" style="edgeStyle=orthogonalEdgeStyle;rounded=0;orthogonalLoop=1;jettySize=auto;html=1;" edge="1" parent="1" source="rEDrQ1sEtyuGQqjGFcy0-81" target="rEDrQ1sEtyuGQqjGFcy0-85">
          <mxGeometry relative="1" as="geometry" />
        </mxCell>
        <mxCell id="rEDrQ1sEtyuGQqjGFcy0-88" value="" style="edgeStyle=orthogonalEdgeStyle;rounded=0;orthogonalLoop=1;jettySize=auto;html=1;" edge="1" parent="1" source="rEDrQ1sEtyuGQqjGFcy0-81" target="rEDrQ1sEtyuGQqjGFcy0-87">
          <mxGeometry relative="1" as="geometry" />
        </mxCell>
        <mxCell id="rEDrQ1sEtyuGQqjGFcy0-81" value="Weather_Input&amp;nbsp; Cloudy OR Rainy" style="rhombus;whiteSpace=wrap;html=1;" vertex="1" parent="1">
          <mxGeometry x="950" y="590" width="120" height="120" as="geometry" />
        </mxCell>
        <mxCell id="rEDrQ1sEtyuGQqjGFcy0-85" value="1)Скаже вдягунти куртку&lt;div&gt;2)Порада до активності&lt;/div&gt;" style="shape=parallelogram;perimeter=parallelogramPerimeter;whiteSpace=wrap;html=1;fixedSize=1;" vertex="1" parent="1">
          <mxGeometry x="1100" y="610" width="170" height="80" as="geometry" />
        </mxCell>
        <mxCell id="rEDrQ1sEtyuGQqjGFcy0-90" value="" style="edgeStyle=orthogonalEdgeStyle;rounded=0;orthogonalLoop=1;jettySize=auto;html=1;" edge="1" parent="1" source="rEDrQ1sEtyuGQqjGFcy0-87" target="rEDrQ1sEtyuGQqjGFcy0-89">
          <mxGeometry relative="1" as="geometry" />
        </mxCell>
        <mxCell id="rEDrQ1sEtyuGQqjGFcy0-87" value="Weather_Input&amp;nbsp; Snowy" style="rhombus;whiteSpace=wrap;html=1;" vertex="1" parent="1">
          <mxGeometry x="950" y="790" width="120" height="120" as="geometry" />
        </mxCell>
        <mxCell id="rEDrQ1sEtyuGQqjGFcy0-89" value="1)Скаже вдягунти куртку&lt;div&gt;2)Порада до активності&lt;/div&gt;" style="shape=parallelogram;perimeter=parallelogramPerimeter;whiteSpace=wrap;html=1;fixedSize=1;" vertex="1" parent="1">
          <mxGeometry x="1110" y="810" width="170" height="80" as="geometry" />
        </mxCell>
        <mxCell id="rEDrQ1sEtyuGQqjGFcy0-91" value="TRUE" style="text;strokeColor=none;align=center;fillColor=none;html=1;verticalAlign=middle;whiteSpace=wrap;rounded=0;" vertex="1" parent="1">
          <mxGeometry x="1060" y="610" width="60" height="30" as="geometry" />
        </mxCell>
        <mxCell id="rEDrQ1sEtyuGQqjGFcy0-92" value="TRUE" style="text;strokeColor=none;align=center;fillColor=none;html=1;verticalAlign=middle;whiteSpace=wrap;rounded=0;" vertex="1" parent="1">
          <mxGeometry x="1060" y="820" width="60" height="30" as="geometry" />
        </mxCell>
        <mxCell id="rEDrQ1sEtyuGQqjGFcy0-93" value="FALSE" style="text;strokeColor=none;align=center;fillColor=none;html=1;verticalAlign=middle;whiteSpace=wrap;rounded=0;" vertex="1" parent="1">
          <mxGeometry x="950" y="530" width="60" height="30" as="geometry" />
        </mxCell>
        <mxCell id="rEDrQ1sEtyuGQqjGFcy0-94" value="FALSE" style="text;strokeColor=none;align=center;fillColor=none;html=1;verticalAlign=middle;whiteSpace=wrap;rounded=0;" vertex="1" parent="1">
          <mxGeometry x="940" y="730" width="60" height="30" as="geometry" />
        </mxCell>
        <mxCell id="rEDrQ1sEtyuGQqjGFcy0-96" value="" style="endArrow=classic;html=1;rounded=0;" edge="1" parent="1">
          <mxGeometry width="50" height="50" relative="1" as="geometry">
            <mxPoint x="1260" y="450" as="sourcePoint" />
            <mxPoint x="1340" y="450" as="targetPoint" />
          </mxGeometry>
        </mxCell>
        <mxCell id="rEDrQ1sEtyuGQqjGFcy0-97" value="" style="endArrow=classic;html=1;rounded=0;" edge="1" parent="1">
          <mxGeometry width="50" height="50" relative="1" as="geometry">
            <mxPoint x="1260" y="649.5" as="sourcePoint" />
            <mxPoint x="1340" y="650" as="targetPoint" />
          </mxGeometry>
        </mxCell>
        <mxCell id="rEDrQ1sEtyuGQqjGFcy0-98" value="" style="endArrow=classic;html=1;rounded=0;" edge="1" parent="1">
          <mxGeometry width="50" height="50" relative="1" as="geometry">
            <mxPoint x="1270" y="849" as="sourcePoint" />
            <mxPoint x="1340" y="849" as="targetPoint" />
          </mxGeometry>
        </mxCell>
        <mxCell id="rEDrQ1sEtyuGQqjGFcy0-99" value="" style="endArrow=none;html=1;rounded=0;" edge="1" parent="1">
          <mxGeometry width="50" height="50" relative="1" as="geometry">
            <mxPoint x="1340" y="1070" as="sourcePoint" />
            <mxPoint x="1340" y="450" as="targetPoint" />
          </mxGeometry>
        </mxCell>
        <mxCell id="rEDrQ1sEtyuGQqjGFcy0-100" value="" style="endArrow=none;html=1;rounded=0;" edge="1" parent="1">
          <mxGeometry width="50" height="50" relative="1" as="geometry">
            <mxPoint x="1020" y="1070" as="sourcePoint" />
            <mxPoint x="1340" y="1070" as="targetPoint" />
          </mxGeometry>
        </mxCell>
        <mxCell id="rEDrQ1sEtyuGQqjGFcy0-102" value="" style="endArrow=classic;html=1;rounded=0;" edge="1" parent="1">
          <mxGeometry width="50" height="50" relative="1" as="geometry">
            <mxPoint x="1020" y="1070" as="sourcePoint" />
            <mxPoint x="1020" y="1110" as="targetPoint" />
          </mxGeometry>
        </mxCell>
        <mxCell id="rEDrQ1sEtyuGQqjGFcy0-103" value="&lt;font style=&quot;font-size: 18px;&quot;&gt;End&lt;/font&gt;" style="ellipse;whiteSpace=wrap;html=1;" vertex="1" parent="1">
          <mxGeometry x="960" y="1110" width="120" height="80" as="geometry" />
        </mxCell>
      </root>
    </mxGraphModel>
  </diagram>
</mxfile>
